<?xml version="1.0" encoding="UTF-8" standalone="no"?><!DOCTYPE svg PUBLIC "-//W3C//DTD SVG 1.1//EN" "http://www.w3.org/Graphics/SVG/1.1/DTD/svg11.dtd"><svg width="100%" height="100%" viewBox="0 0 154 136" version="1.1" xmlns="http://www.w3.org/2000/svg" xmlns:xlink="http://www.w3.org/1999/xlink" xml:space="preserve" xmlns:serif="http://www.serif.com/" style="fill-rule:evenodd;clip-rule:evenodd;stroke-linejoin:round;stroke-miterlimit:1.41421;"><rect id="Artboard2" x="0" y="0" width="153.301" height="135.087" style="fill:none;"/><clipPath id="_clip1"><rect x="0" y="0" width="153.301" height="135.087"/></clipPath><g clip-path="url(#_clip1)"><g><path d="M2.257,2.285l3.974,4.008l0,2.849l-3.974,-2.617l0,-4.24Z" style="fill:#003973;fill-rule:nonzero;"/><path d="M20.259,4.687c0.58,0 1.126,-0.248 1.624,-0.414l0,-4.092l-0.498,0c-0.248,0.928 -1.589,0.812 -2.202,0.812l-7.668,0c-3.246,0 -4.141,3.379 -4.141,5.979c0,3.71 1.209,6.161 4.985,6.559l0,-3.727c-1.656,-0.43 -1.987,-1.076 -1.987,-2.467c0,-1.309 0.281,-2.6 1.705,-2.6c0.564,0 0.995,0.513 1.044,1.407l0.514,3.561c0.397,2.567 1.854,4.29 4.571,4.29c2.666,0 4.057,-1.971 4.057,-4.505c0,-2.12 -0.546,-3.329 -2.004,-4.803m-0.646,3.626c0,1.044 -0.578,1.774 -1.622,1.774c-1.491,0 -1.971,-1.044 -2.154,-2.684c-0.132,-1.259 -0.48,-2.22 -0.778,-2.666c1.341,0.032 2.202,-0.266 3.28,0.513c0.96,0.613 1.274,2.021 1.274,3.063" style="fill:#003973;fill-rule:nonzero;"/><path d="M17.477,24.313l4.406,0l0,3.892l-19.048,0l0,-3.892l10.369,0l-5.4,-4.769l0,-4.787l5.483,5.25l8.596,-5.366l0,4.62l-5.963,3.496l1.557,1.556Z" style="fill:#003973;fill-rule:nonzero;"/><path d="M12.077,31.518l0,3.809c-1.54,0.432 -1.854,1.11 -1.854,2.749c0,1.557 0.48,2.385 1.424,2.385c0.43,0 0.862,-0.496 1.077,-1.556c0.265,-1.077 0.563,-2.17 0.778,-3.362c0.514,-2.336 1.441,-4.456 3.975,-4.456c3.445,0 4.786,2.816 4.786,6.559c0,3.279 -1.076,7.122 -4.786,7.122l0,-3.925c1.275,0 1.988,-1.126 1.988,-3.346c0,-0.795 -0.117,-2.567 -1.442,-2.567c-0.464,0 -0.894,0.613 -1.11,1.64c-0.297,1.143 -0.562,2.335 -0.778,3.445c-0.596,2.252 -1.474,4.157 -3.991,4.19c-3.378,0.017 -4.77,-2.948 -4.77,-5.962c0,-4.191 1.557,-6.493 4.703,-6.725" style="fill:#003973;fill-rule:nonzero;"/><path d="M12.144,47.285l9.739,0l0,3.876l-8.546,0c-1.508,0 -2.85,0.381 -2.85,2.584c0,1.971 1.409,3.097 3.28,3.097l8.116,0l0,3.843l-14.079,0l0,-3.628l2.071,0l0,-0.098c-1.64,-1.028 -2.501,-2.518 -2.501,-4.472c0,-2.9 1.707,-5.202 4.77,-5.202" style="fill:#003973;fill-rule:nonzero;"/><path d="M22.263,70.142c0,-3.246 -1.192,-5.565 -4.454,-6.476l0,3.926c1.126,0.397 1.49,1.423 1.524,2.55c0.015,1.971 -0.846,3.412 -3.413,3.412l0,-10.104c-3.246,-0.165 -8.546,0.911 -8.546,6.991c0,4.57 2.898,7.005 7.155,7.005c5.25,0 7.734,-2.567 7.734,-7.304m-8.761,3.213c-1.987,-0.232 -3.015,-1.06 -3.015,-2.899c0,-1.821 1.276,-2.583 3.015,-2.864l0,5.763Z" style="fill:#003973;fill-rule:nonzero;"/><path d="M7.804,78.241l14.079,5.383l0,4.091l-14.079,5.283l0,-4.322l9.607,-3.065l-9.607,-3.18l0,-4.19Z" style="fill:#003973;fill-rule:nonzero;"/><path d="M22.263,101.263c0,-4.455 -2.583,-7.652 -7.419,-7.652c-4.837,0 -7.47,3.23 -7.47,7.652c0,4.422 2.765,7.536 7.47,7.536c4.719,0 7.419,-3.08 7.419,-7.536m-3.08,0c0,2.998 -2.318,3.511 -4.339,3.511c-2.004,0 -4.357,-0.663 -4.357,-3.511c0,-2.848 2.369,-3.643 4.357,-3.643c1.987,0 4.339,0.679 4.339,3.643" style="fill:#003973;fill-rule:nonzero;"/><rect x="2.835" y="111.598" width="19.047" height="3.876" style="fill:#003973;"/><path d="M16.135,134.869l0,-3.942c2.452,0 3.098,-2.368 3.048,-4.24c-0.033,-1.624 -0.298,-4.191 -2.402,-4.191c-1.044,0 -1.954,0.763 -2.417,3.643c-0.298,1.856 -0.812,3.661 -1.425,5.5c-0.728,2.186 -2.634,2.915 -4.654,2.915c-4.274,0 -5.88,-3.793 -5.88,-7.602c0,-5.631 3.23,-7.669 6.194,-7.801l0,4.008c-2.351,0.198 -2.948,1.988 -2.948,4.108c0,1.589 0.564,3.444 2.369,3.444c1.375,0 1.756,-0.943 1.987,-2.119l1.126,-4.82c0.812,-3.495 1.971,-5.3 5.135,-5.3c4.356,0 6.161,3.644 6.161,7.883c0,4.406 -1.524,8.514 -6.294,8.514" style="fill:#003973;fill-rule:nonzero;"/><path d="M153.437,134.242l-9.408,-26.831l-6.342,0l-9.409,26.831l5.748,0l1.887,-5.598l9.822,0l1.673,5.598l6.029,0Zm-9.308,-10.185l-6.725,0l3.363,-10.435l0.1,0l3.262,10.435Z" style="fill:#003973;fill-rule:nonzero;"/><path d="M122.863,112.231l0,22.011l-4.952,0l0,-22.011l-8.248,0l0,-4.82l21.2,0.083l0,4.787l-8,-0.05Z" style="fill:#003973;fill-rule:nonzero;"/><path d="M103.585,102.84l-4.489,0l-2.55,2.998l-2.568,-2.998l-4.505,0l3.694,4.289c-4.042,0.812 -7.487,3.18 -7.487,8c0,3.528 1.574,5.565 4.141,6.526c2.65,0.976 5.118,1.441 7.916,2.02c4.688,0.927 5.202,2.021 5.202,3.396c0,2.202 -2.021,3.395 -5.996,3.395c-3.975,0 -6.045,-1.755 -6.045,-4.307l-5.648,0c0,6.908 6.128,8.879 12.124,8.879c4.72,0 11.295,-1.79 11.295,-8.663c0,-4.572 -2.17,-5.979 -7.552,-7.237l-6.923,-1.591c-1.673,-0.43 -2.998,-0.844 -2.998,-2.832c0,-2.484 2.715,-3.296 4.919,-3.296c3.876,0 5.614,1.557 5.863,4.107l5.764,0c0,-2.103 -1.457,-7.254 -7.751,-8.397l3.594,-4.289Z" style="fill:#003973;fill-rule:nonzero;"/><path d="M82.865,121.059c0,-8.812 -5.945,-14.476 -12.769,-14.476c-6.824,0 -12.803,6.211 -12.803,14.476c0,8.264 6.029,14.21 12.803,14.21c6.741,0 12.769,-5.449 12.769,-14.21m-5.234,-0.017c0,4.637 -2.616,9.523 -7.618,9.523c-5.019,0 -7.454,-4.77 -7.454,-9.523c0,-4.787 2.485,-9.755 7.454,-9.755c4.968,0 7.618,5.101 7.618,9.755" style="fill:#003973;fill-rule:nonzero;"/><path d="M55.156,116.155c0,-5.266 -2.915,-8.744 -7.95,-8.744l-11.527,0l0,26.831l4.803,0l0,-9.589l6.509,0c4.737,0 8.165,-3.396 8.165,-8.498m-4.421,-0.148c0,3.131 -2.585,4.024 -4.191,4.024l-6.062,0l0,-8l6.079,0c1.44,0 4.174,0.845 4.174,3.976" style="fill:#003973;fill-rule:nonzero;"/><rect x="35.646" y="1.001" width="117.245" height="92.965" style="fill:#003973;"/><path d="M94.259,31.078c6.692,0 12.191,5.449 12.191,12.174c0,6.707 -5.499,12.189 -12.191,12.189c-6.707,0 -12.172,-5.482 -12.172,-12.189c0,-6.725 5.465,-12.174 12.172,-12.174m-53.529,-24.794c0.381,10.567 4.505,21.896 10.286,32.281c12.686,22.889 28.056,31.088 43.243,31.088c14.526,0 26.402,-11.86 26.402,-26.418c0,-14.575 -11.876,-26.418 -26.417,-26.418c-7.603,0 -14.625,3.248 -19.412,8.414c0.646,4.721 1.557,8.795 2.751,12.438c2.3,-6.839 9.042,-11.824 16.661,-11.824c9.573,0 17.406,7.784 17.406,17.39c0,9.606 -7.833,17.441 -17.406,17.441c-20.555,0.015 -26.135,-29.68 -26.219,-54.392l-27.295,0Zm33.324,12.605c5.433,-4.556 12.571,-7.454 20.19,-7.454c13.845,0 25.671,9.01 30.209,21.912c2.55,-2.815 8.695,-16.148 9.772,-27.063l-60.784,0c-0.099,4.455 0.133,8.695 0.613,12.605m73.769,-12.605l-8.298,0c-1.788,14.973 -8.264,28.387 -13.631,34.798c0,0.463 0.033,1.739 0.033,2.17c0,5.665 -1.507,11.03 -4.075,15.569c13.085,-11.197 25.672,-34.65 25.971,-52.537m-0.182,22.559c-5.88,16.148 -15.404,29.298 -26.947,37.381l26.947,16.099l0,-53.48Zm-106.712,0.132l0,53.398l26.93,-16.116c-11.51,-8.049 -21.066,-21.2 -26.93,-37.282m74.448,40.528l32.264,19.18l-106.712,0l32.247,-19.212c6.542,3.544 13.68,5.465 21.083,5.465c7.437,0 14.576,-1.954 21.118,-5.433" style="fill:#fabb00;fill-rule:nonzero;"/></g></g></svg>