<svg xmlns="http://www.w3.org/2000/svg" width="56" height="66.644" viewBox="0 0 56 66.644"><defs><style>.a{fill:#300;}.b{fill:#ffbe00;}</style></defs><g transform="translate(-15 -14.636)"><path class="a" d="M23.733,70.175C19,66.3,16.5,60.722,16.5,54.06V22.392c7.474-3.962,16.524-5.97,26.9-5.97s19.427,2.008,26.9,5.97V54.06c0,6.662-2.5,12.236-7.233,16.115-4.33,3.549-18.088,9.586-19.668,10.273C41.821,79.761,28.063,73.725,23.733,70.175Z" transform="translate(-0.4 -0.477)"/><path class="b" d="M68.427,21.543c-3.458-.321-7.05-.533-10.709-.533-13.57,0-28.118,2.917-40.145,13.948V53.813c0,6.141,2.271,11.269,6.586,14.786,3.81,3.1,15.535,8.41,18.841,9.869,3.264-1.437,14.959-6.677,18.836-9.869,4.342-3.578,6.591-8.587,6.591-14.786V21.543M20.059,51.851V36.538h4.869V52.067c0,1.382.334,3.428,2.567,3.428a4.08,4.08,0,0,0,2.3-.6V36.538h4.863V57.672a12.955,12.955,0,0,1-7.34,1.956c-4.82,0-7.264-2.616-7.264-7.777M42.036,69.526H37.164V37.778a11.766,11.766,0,0,1,6.566-1.733c5.815,0,9.01,4.412,9.01,11.513s-3.1,11.986-8.51,11.986a7.721,7.721,0,0,1-2.193-.277Zm0-14.24a4.63,4.63,0,0,0,1.581.294c2.8,0,4.142-2.573,4.142-7.9,0-5.457-1.171-7.714-4-7.714a4.247,4.247,0,0,0-1.726.351ZM53.844,42.394a6.465,6.465,0,0,1,6.536-6.349,8.343,8.343,0,0,1,5.346,1.582v4.237a6.522,6.522,0,0,0-4.363-2c-1.381-.012-2.818.595-2.865,2.327-.047,1.773,1.387,2.473,3.2,3.539,4.069,2.392,4.856,4.542,4.762,7.383-.093,3.115-2.24,6.517-7.053,6.517a10.663,10.663,0,0,1-5.355-1.512V53.631a7.755,7.755,0,0,0,4.656,1.982c1.787.009,2.963-1.015,2.921-2.714-.037-1.529-.9-2.36-3.043-3.619-4.017-2.356-4.739-4.295-4.746-6.886M22.529,70.585C17.6,66.548,15,60.747,15,53.813V20.85c7.779-4.124,17.2-6.214,28-6.214s20.221,2.09,28,6.214V53.813c0,6.934-2.6,12.735-7.529,16.773C58.965,74.28,44.644,80.563,43,81.278,41.356,80.563,27.035,74.28,22.529,70.585Zm38.344,6.909v2.861h.516V79.161h.073c.039.058.777,1.194.777,1.194h.625S62.08,79.208,62,79.1a.761.761,0,0,0,.633-.76.833.833,0,0,0-.952-.841Zm.752.418c.439,0,.5.215.5.4,0,.268-.115.449-.668.449H61.39v-.851Zm2.02,1.02a1.937,1.937,0,1,1-1.939-1.941,1.937,1.937,0,0,1,1.939,1.941M61.7,76.577a2.351,2.351,0,1,0,2.354,2.355A2.358,2.358,0,0,0,61.7,76.577"/></g></svg>